<svg xmlns="http://www.w3.org/2000/svg" xmlns:xlink="http://www.w3.org/1999/xlink" id="pressed_boolean_switch_on" width="53" height="36" x="0" y="0" enable-background="new 0 0 53 36" version="1.1" viewBox="0 0 53 36" xml:space="preserve"><path id="base" fill="#ffc801" fill-rule="evenodd" d="M15.5,3.01h20c8.56,0,15.5,6.57,15.5,15.13	s-6.94,14.88-15.5,14.88h-20C6.94,33.02,0,26.71,0,18.14S6.94,3.01,15.5,3.01z" clip-rule="evenodd"/><circle cx="35" cy="18" r="18" fill="#fff4cc" fill-rule="evenodd" clip-rule="evenodd"/><path fill="#cca000" fill-rule="evenodd" d="M52.96,18.02c0,9.94-8.06,18-18,18c-9.94,0-18-8.06-18-18	c0-9.94,8.06-18,18-18C44.91,0.02,52.96,8.08,52.96,18.02z M34.96,1.02c-9.39,0-17,7.61-17,17c0,9.39,7.61,17,17,17	c9.39,0,17-7.61,17-17C51.96,8.63,44.35,1.02,34.96,1.02z" clip-rule="evenodd"/></svg>